<?xml version="1.0" encoding="utf-8"?>
<!-- Generator: Adobe Illustrator 27.3.0, SVG Export Plug-In . SVG Version: 6.00 Build 0)  -->
<svg version="1.1" id="b" xmlns="http://www.w3.org/2000/svg" xmlns:xlink="http://www.w3.org/1999/xlink" x="0px" y="0px"
	 viewBox="0 0 401.1 347.4" style="enable-background:new 0 0 401.1 347.4;" xml:space="preserve">
<style type="text/css">
	.st0{fill:none;stroke:#FFFFFF;}
	.st1{fill:#40BA2F;}
	.st2{fill:#FFFFFF;}
	.st3{fill:#5C2983;}
</style>
<polygon class="st0" points="225.6,0.5 175.6,0.5 150.6,43.8 175.6,87.1 225.6,87.1 250.6,43.8 "/>
<polygon class="st1" points="225,1.5 176.1,1.5 151.7,43.8 176.1,86.1 225,86.1 249.4,43.8 "/>
<g>
	<path class="st2" d="M179.1,48.1v-8.5h3c2.4,0,4.2,1.6,4.2,4.3s-1.8,4.2-4.2,4.2H179.1z M182.1,46.6c1.4,0,2.6-0.9,2.6-2.7
		s-1.2-2.7-2.5-2.7h-1.3v5.4H182.1z"/>
	<path class="st2" d="M188.5,39.3c0.6,0,1,0.4,1,1c0,0.5-0.4,1-1,1c-0.5,0-1-0.4-1-1C187.5,39.8,187.9,39.3,188.5,39.3z M187.7,48.1
		v-5.9h1.6v5.9H187.7z"/>
	<path class="st2" d="M194.3,48.1h-1.6l-2.4-5.9h1.8l1.5,4l1.4-4h1.7L194.3,48.1z"/>
	<path class="st2" d="M202.6,46.5c-0.3,1-1.2,1.9-2.7,1.9c-1.6,0-3-1.2-3-3.2c0-1.9,1.4-3.1,2.9-3.1c1.8,0,2.9,1.2,2.9,3.1
		c0,0.2,0,0.5,0,0.5h-4.2c0,0.8,0.7,1.3,1.5,1.3c0.7,0,1.2-0.4,1.3-0.9C201.3,46.1,202.6,46.5,202.6,46.5z M201.2,44.5
		c0-0.6-0.4-1.2-1.3-1.2c-0.8,0-1.3,0.6-1.3,1.2H201.2z"/>
	<path class="st2" d="M207.6,43.8c-0.2,0-0.3,0-0.5,0c-0.8,0-1.5,0.4-1.5,1.7v2.7H204v-5.9h1.5v0.9c0.4-0.8,1.2-0.9,1.7-0.9
		c0.1,0,0.3,0,0.4,0V43.8z"/>
	<path class="st2" d="M209.6,46.2c0,0.5,0.4,0.9,1.1,0.9c0.5,0,0.8-0.3,0.8-0.6c0-0.3-0.2-0.5-0.6-0.6l-0.8-0.2
		c-1.1-0.3-1.7-0.9-1.7-1.8c0-1.1,0.9-1.9,2.2-1.9c1.7,0,2.2,1.1,2.3,1.7l-1.3,0.3c0-0.3-0.3-0.8-1-0.8c-0.4,0-0.8,0.3-0.8,0.6
		c0,0.3,0.2,0.5,0.5,0.5l0.8,0.2c1.2,0.2,1.8,0.9,1.8,1.8c0,1-0.7,1.9-2.3,1.9c-1.8,0-2.4-1.2-2.5-1.8
		C208.3,46.5,209.6,46.2,209.6,46.2z"/>
	<path class="st2" d="M219.6,46.5c-0.3,1-1.2,1.9-2.7,1.9c-1.6,0-3-1.2-3-3.2c0-1.9,1.4-3.1,2.9-3.1c1.8,0,2.9,1.2,2.9,3.1
		c0,0.2,0,0.5,0,0.5h-4.2c0,0.8,0.7,1.3,1.5,1.3c0.7,0,1.2-0.4,1.3-0.9C218.2,46.1,219.6,46.5,219.6,46.5z M218.1,44.5
		c0-0.6-0.4-1.2-1.3-1.2c-0.8,0-1.3,0.6-1.3,1.2H218.1z"/>
</g>
<polygon class="st0" points="300.6,43.8 250.6,43.8 225.6,87.1 250.6,130.4 300.6,130.4 325.6,87.1 "/>
<polygon class="st1" points="300,44.8 251.1,44.8 226.7,87.1 251.1,129.4 300,129.4 324.4,87.1 "/>
<g>
	<path class="st2" d="M255.4,75.7c1.7,0,2.6,1,2.6,2.3c0,0.9-0.5,1.6-1.2,1.8c0.8,0.2,1.5,1,1.5,2c0,1.4-1,2.4-2.6,2.4h-3.3v-8.5
		H255.4z M255.1,79.3c0.8,0,1.2-0.4,1.2-1.1s-0.4-1.1-1.2-1.1H254v2.1C254,79.3,255.1,79.3,255.1,79.3z M255.3,82.9
		c0.8,0,1.3-0.4,1.3-1.1c0-0.7-0.4-1.1-1.3-1.1H254v2.2C254,82.9,255.3,82.9,255.3,82.9z"/>
	<path class="st2" d="M264.9,82.6c-0.3,1-1.2,1.9-2.7,1.9c-1.6,0-3-1.2-3-3.2c0-1.9,1.4-3.1,2.9-3.1c1.8,0,2.9,1.2,2.9,3.1
		c0,0.2,0,0.5,0,0.5h-4.2c0,0.8,0.7,1.3,1.5,1.3c0.7,0,1.2-0.4,1.3-0.9L264.9,82.6L264.9,82.6z M263.4,80.6c0-0.6-0.4-1.2-1.3-1.2
		c-0.8,0-1.3,0.6-1.3,1.2H263.4z"/>
	<path class="st2" d="M272.9,77.3v6.9h-1.7v-6.9h-2.7v-1.6h7v1.6H272.9z"/>
	<path class="st2" d="M279.4,79.9c-0.2,0-0.3,0-0.5,0c-0.8,0-1.5,0.4-1.5,1.7v2.7h-1.6v-5.9h1.5v0.9c0.4-0.8,1.2-0.9,1.7-0.9
		c0.1,0,0.3,0,0.4,0C279.4,78.3,279.4,79.9,279.4,79.9z"/>
	<path class="st2" d="M284.3,83.6c-0.3,0.6-1,0.8-1.6,0.8c-1.4,0-2.2-1-2.2-2.3v-3.7h1.6v3.4c0,0.7,0.3,1.2,1.1,1.2
		c0.7,0,1.1-0.5,1.1-1.2v-3.4h1.6v4.8c0,0.5,0,0.9,0.1,1.1h-1.5C284.3,84.1,284.3,83.9,284.3,83.6z"/>
	<path class="st2" d="M292.8,82.6c-0.3,1-1.2,1.9-2.7,1.9c-1.6,0-3-1.2-3-3.2c0-1.9,1.4-3.1,2.9-3.1c1.8,0,2.9,1.2,2.9,3.1
		c0,0.2,0,0.5,0,0.5h-4.2c0,0.8,0.7,1.3,1.5,1.3c0.7,0,1.2-0.4,1.3-0.9L292.8,82.6L292.8,82.6z M291.3,80.6c0-0.6-0.4-1.2-1.3-1.2
		c-0.8,0-1.3,0.6-1.3,1.2H291.3z"/>
	<path class="st2" d="M294.9,82.3c0.7,0,1.2,0.6,1.2,1.4c0,1.8-1.2,2.5-2.1,2.6v-0.8c0.5-0.1,1.1-0.6,1.1-1.3c0,0-0.2,0.1-0.3,0.1
		c-0.6,0-1-0.4-1-1S294.3,82.3,294.9,82.3L294.9,82.3z"/>
	<path class="st2" d="M259.3,90.1c1.7,0,2.6,1,2.6,2.3c0,0.9-0.5,1.6-1.2,1.8c0.8,0.2,1.5,1,1.5,2c0,1.4-1,2.4-2.6,2.4h-3.3v-8.5
		H259.3z M259.1,93.7c0.8,0,1.2-0.4,1.2-1.1s-0.4-1.1-1.2-1.1h-1.2v2.1C257.9,93.7,259.1,93.7,259.1,93.7z M259.2,97.3
		c0.8,0,1.3-0.4,1.3-1.1c0-0.7-0.4-1.1-1.3-1.1h-1.4v2.2C257.9,97.3,259.2,97.3,259.2,97.3z"/>
	<path class="st2" d="M268.8,97c-0.3,1-1.2,1.9-2.7,1.9c-1.6,0-3-1.2-3-3.2c0-1.9,1.4-3.1,2.9-3.1c1.8,0,2.9,1.2,2.9,3.1
		c0,0.2,0,0.5,0,0.5h-4.2c0,0.8,0.7,1.3,1.5,1.3c0.7,0,1.2-0.4,1.3-0.9L268.8,97L268.8,97z M267.3,95c0-0.6-0.4-1.2-1.3-1.2
		c-0.8,0-1.3,0.6-1.3,1.2H267.3z"/>
	<path class="st2" d="M272.4,90.1h1.9l1.9,3.4l1.9-3.4h1.9l-3,4.9v3.6h-1.7v-3.6L272.4,90.1z"/>
	<path class="st2" d="M285.5,95.7c0,1.8-1.3,3.1-3.1,3.1c-1.8,0-3.1-1.3-3.1-3.1c0-1.8,1.3-3.1,3.1-3.1
		C284.2,92.6,285.5,93.9,285.5,95.7z M283.9,95.7c0-1.1-0.7-1.7-1.5-1.7c-0.8,0-1.5,0.6-1.5,1.7c0,1.1,0.7,1.7,1.5,1.7
		C283.2,97.4,283.9,96.8,283.9,95.7z"/>
	<path class="st2" d="M290.6,98c-0.3,0.6-1,0.8-1.6,0.8c-1.4,0-2.2-1-2.2-2.3v-3.7h1.6v3.4c0,0.7,0.3,1.2,1.1,1.2
		c0.7,0,1.1-0.5,1.1-1.2v-3.4h1.6v4.8c0,0.5,0,0.9,0.1,1.1h-1.5C290.6,98.5,290.6,98.3,290.6,98z"/>
</g>
<polygon class="st0" points="150.6,43.8 100.6,43.8 75.6,87.1 100.6,130.4 150.6,130.4 175.6,87.1 "/>
<polygon class="st1" points="150,44.8 101.2,44.8 76.7,87.1 101.2,129.4 150,129.4 174.5,87.1 "/>
<g>
	<path class="st2" d="M114.5,84.5v6.9h-1.7v-6.9h-2.7v-1.6h7v1.6H114.5z"/>
	<path class="st2" d="M121,87.1c-0.2,0-0.3,0-0.5,0c-0.8,0-1.5,0.4-1.5,1.7v2.7h-1.6v-5.9h1.5v0.9c0.4-0.8,1.2-0.9,1.7-0.9
		c0.1,0,0.3,0,0.4,0C121,85.5,121,87.1,121,87.1z"/>
	<path class="st2" d="M125.9,90.8c-0.3,0.6-1,0.8-1.6,0.8c-1.4,0-2.2-1-2.2-2.3v-3.7h1.6V89c0,0.7,0.3,1.2,1.1,1.2
		c0.7,0,1.1-0.5,1.1-1.2v-3.4h1.6v4.8c0,0.5,0,0.9,0.1,1.1H126C125.9,91.3,125.9,91.1,125.9,90.8L125.9,90.8z"/>
	<path class="st2" d="M130,89.5c0,0.5,0.4,0.9,1.1,0.9c0.5,0,0.8-0.3,0.8-0.6c0-0.3-0.2-0.5-0.6-0.6l-0.8-0.2
		c-1.1-0.3-1.7-0.9-1.7-1.8c0-1.1,0.9-1.9,2.2-1.9c1.7,0,2.2,1.1,2.3,1.7l-1.3,0.3c0-0.3-0.3-0.8-1-0.8c-0.4,0-0.8,0.3-0.8,0.6
		c0,0.3,0.2,0.5,0.5,0.5l0.8,0.2c1.2,0.2,1.8,0.9,1.8,1.8c0,1-0.7,1.9-2.3,1.9c-1.8,0-2.4-1.2-2.5-1.8L130,89.5L130,89.5z"/>
	<path class="st2" d="M136.6,85.5h1.2V87h-1.2v2.5c0,0.5,0.2,0.7,0.7,0.7c0.2,0,0.4,0,0.5,0v1.3c-0.1,0.1-0.4,0.1-0.9,0.1
		c-1.2,0-1.9-0.7-1.9-1.8V87H134v-1.4h0.3c0.6,0,0.9-0.4,0.9-0.9v-0.8h1.4V85.5L136.6,85.5z"/>
</g>
<polygon class="st0" points="300.6,130.4 250.6,130.4 225.6,173.7 250.6,217 300.6,217 325.6,173.7 "/>
<polygon class="st3" points="300,131.4 251.1,131.4 226.7,173.7 251.1,216 300,216 324.4,173.7 "/>
<g>
	<path class="st2" d="M263.6,169.4c2.3,0,4.4,1.7,4.4,4.4c0,2.7-2.1,4.4-4.4,4.4c-2.3,0-4.4-1.7-4.4-4.4
		C259.2,171.1,261.3,169.4,263.6,169.4z M263.6,176.6c1.3,0,2.7-0.9,2.7-2.8c0-1.9-1.3-2.8-2.7-2.8c-1.3,0-2.7,0.9-2.7,2.8
		C261,175.7,262.3,176.6,263.6,176.6z"/>
	<path class="st2" d="M269.3,180.3v-8.2h1.5v0.7c0.3-0.5,0.9-0.9,1.8-0.9c1.7,0,2.7,1.3,2.7,3.1c0,1.8-1.1,3.1-2.8,3.1
		c-0.8,0-1.4-0.3-1.7-0.7v2.9H269.3z M272.4,173.4c-0.8,0-1.5,0.6-1.5,1.7c0,1,0.7,1.7,1.5,1.7s1.5-0.6,1.5-1.7
		C273.8,174.1,273.2,173.4,272.4,173.4z"/>
	<path class="st2" d="M281.9,176.4c-0.3,1-1.2,1.9-2.7,1.9c-1.6,0-3-1.2-3-3.2c0-1.9,1.4-3.1,2.9-3.1c1.8,0,2.9,1.2,2.9,3.1
		c0,0.2,0,0.5,0,0.5h-4.2c0,0.8,0.7,1.3,1.5,1.3c0.7,0,1.2-0.4,1.3-0.9L281.9,176.4z M280.5,174.4c0-0.6-0.4-1.2-1.3-1.2
		c-0.8,0-1.3,0.6-1.3,1.2H280.5z"/>
	<path class="st2" d="M284.9,178h-1.6v-5.9h1.5v0.7c0.4-0.6,1.1-0.9,1.7-0.9c1.5,0,2.1,1,2.1,2.3v3.7h-1.6v-3.4
		c0-0.7-0.3-1.2-1.1-1.2c-0.7,0-1.1,0.5-1.1,1.2V178z"/>
</g>
<polygon class="st0" points="150.6,130.4 100.6,130.4 75.6,173.7 100.6,217 150.6,217 175.6,173.7 "/>
<polygon class="st3" points="150,131.4 101.2,131.4 76.7,173.7 101.2,216 150,216 174.5,173.7 "/>
<g>
	<path class="st2" d="M111.2,173.8c0-2.7,2.1-4.4,4.3-4.4c2.4,0,3.6,1.4,3.9,2.8l-1.6,0.5c-0.2-0.8-0.9-1.7-2.3-1.7
		c-1.3,0-2.6,0.9-2.6,2.8c0,1.8,1.3,2.8,2.6,2.8c1.5,0,2.2-0.9,2.4-1.7l1.5,0.5c-0.3,1.3-1.5,2.9-3.9,2.9
		C113.2,178.2,111.2,176.5,111.2,173.8L111.2,173.8z"/>
	<path class="st2" d="M122,174.7l1.5-0.2c0.3,0,0.4-0.2,0.4-0.4c0-0.4-0.3-0.8-1-0.8c-0.7,0-1.1,0.4-1.1,1l-1.4-0.3
		c0.1-0.9,0.9-1.9,2.5-1.9c1.9,0,2.6,1.1,2.6,2.2v2.9c0,0.3,0,0.7,0.1,0.9h-1.5c0-0.2-0.1-0.5-0.1-0.7c-0.3,0.5-0.9,0.9-1.7,0.9
		c-1.3,0-2-0.9-2-1.8C120.2,175.4,121,174.8,122,174.7L122,174.7z M123.9,175.7v-0.3l-1.3,0.2c-0.4,0.1-0.7,0.3-0.7,0.7
		c0,0.3,0.3,0.7,0.8,0.7C123.3,177,123.9,176.7,123.9,175.7z"/>
	<path class="st2" d="M130.7,173.7c-0.2,0-0.3,0-0.5,0c-0.8,0-1.5,0.4-1.5,1.7v2.7h-1.6v-5.9h1.5v0.9c0.4-0.8,1.2-0.9,1.7-0.9
		c0.1,0,0.3,0,0.4,0V173.7z"/>
	<path class="st2" d="M137,176.4c-0.3,1-1.2,1.9-2.7,1.9c-1.6,0-3-1.2-3-3.2c0-1.9,1.4-3.1,2.9-3.1c1.8,0,2.9,1.2,2.9,3.1
		c0,0.2,0,0.5,0,0.5h-4.2c0,0.8,0.7,1.3,1.5,1.3c0.7,0,1.2-0.4,1.3-0.9L137,176.4z M135.5,174.4c0-0.6-0.4-1.2-1.3-1.2
		c-0.8,0-1.3,0.6-1.3,1.2H135.5z"/>
</g>
<polygon class="st0" points="225.6,87.1 175.6,87.1 150.6,130.4 175.6,173.7 225.6,173.7 250.6,130.4 "/>
<polygon class="st3" points="225,88.1 176.1,88.1 151.7,130.4 176.1,172.7 225,172.7 249.4,130.4 "/>
<g>
	<path class="st2" d="M184.8,127.5v-6l-2.4,6H181l-2.4-5.9v5.9H177V119h2.2l2.6,6.1l2.5-6.1h2.3v8.5H184.8z"/>
	<path class="st2" d="M189.7,124.2l1.5-0.2c0.3,0,0.4-0.2,0.4-0.4c0-0.4-0.3-0.8-1-0.8c-0.7,0-1.1,0.4-1.1,1l-1.4-0.3
		c0.1-0.9,0.9-1.9,2.5-1.9c1.9,0,2.6,1.1,2.6,2.2v2.9c0,0.3,0,0.7,0.1,0.9h-1.5c0-0.2-0.1-0.5-0.1-0.7c-0.3,0.5-0.9,0.9-1.7,0.9
		c-1.3,0-2-0.9-2-1.8C187.9,124.9,188.7,124.3,189.7,124.2L189.7,124.2z M191.6,125.2v-0.3l-1.3,0.2c-0.4,0.1-0.7,0.3-0.7,0.7
		c0,0.3,0.3,0.7,0.8,0.7C190.9,126.5,191.6,126.2,191.6,125.2z"/>
	<path class="st2" d="M195.6,125.6c0,0.5,0.4,0.9,1.1,0.9c0.5,0,0.8-0.3,0.8-0.6c0-0.3-0.2-0.5-0.6-0.6l-0.8-0.2
		c-1.1-0.3-1.7-0.9-1.7-1.8c0-1.1,0.9-1.9,2.2-1.9c1.7,0,2.2,1.1,2.3,1.7l-1.3,0.3c0-0.3-0.3-0.8-1-0.8c-0.4,0-0.8,0.3-0.8,0.6
		c0,0.3,0.2,0.5,0.5,0.5l0.8,0.2c1.2,0.2,1.8,0.9,1.8,1.8c0,1-0.7,1.9-2.3,1.9c-1.8,0-2.4-1.2-2.5-1.8L195.6,125.6L195.6,125.6z"/>
	<path class="st2" d="M202.2,121.6h1.2v1.4h-1.2v2.5c0,0.5,0.2,0.7,0.7,0.7c0.2,0,0.4,0,0.5,0v1.3c-0.1,0.1-0.4,0.1-0.9,0.1
		c-1.2,0-1.9-0.7-1.9-1.8v-2.7h-1.1v-1.4h0.3c0.6,0,0.9-0.4,0.9-0.9v-0.8h1.4V121.6L202.2,121.6z"/>
	<path class="st2" d="M210,125.9c-0.3,1-1.2,1.9-2.7,1.9c-1.6,0-3-1.2-3-3.2c0-1.9,1.4-3.1,2.9-3.1c1.8,0,2.9,1.2,2.9,3.1
		c0,0.2,0,0.5,0,0.5h-4.2c0,0.8,0.7,1.3,1.5,1.3c0.7,0,1.2-0.4,1.3-0.9L210,125.9L210,125.9z M208.5,123.9c0-0.6-0.4-1.2-1.3-1.2
		c-0.8,0-1.3,0.6-1.3,1.2H208.5z"/>
	<path class="st2" d="M214.9,123.2c-0.2,0-0.3,0-0.5,0c-0.8,0-1.5,0.4-1.5,1.7v2.7h-1.6v-5.9h1.5v0.9c0.4-0.8,1.2-0.9,1.7-0.9
		c0.1,0,0.3,0,0.4,0C214.9,121.6,214.9,123.2,214.9,123.2z"/>
	<path class="st2" d="M216.7,129.9l1.4-3.1l-2.5-5.2h1.8l1.6,3.5l1.5-3.5h1.7l-3.7,8.2H216.7z"/>
	<path class="st2" d="M183.9,139c0,1.8-1.3,3.1-3.1,3.1c-1.8,0-3.1-1.3-3.1-3.1c0-1.8,1.3-3.1,3.1-3.1
		C182.6,135.9,183.9,137.2,183.9,139z M182.3,139c0-1.1-0.7-1.7-1.5-1.7c-0.8,0-1.5,0.6-1.5,1.7c0,1.1,0.7,1.7,1.5,1.7
		C181.6,140.7,182.3,140.1,182.3,139z"/>
	<path class="st2" d="M187.1,135.4v0.6h1.3v1.4h-1.3v4.5h-1.6v-4.5h-1V136h1v-0.7c0-1.3,0.8-2.2,2.1-2.2c0.3,0,0.7,0.1,0.8,0.1v1.3
		c-0.1,0-0.2-0.1-0.5-0.1C187.6,134.6,187.1,134.7,187.1,135.4z"/>
	<path class="st2" d="M192,137.7c0-2.7,2.1-4.4,4.3-4.4c2.4,0,3.6,1.4,3.9,2.8l-1.6,0.5c-0.2-0.8-0.9-1.7-2.3-1.7
		c-1.3,0-2.6,0.9-2.6,2.8c0,1.8,1.3,2.8,2.6,2.8c1.5,0,2.2-0.9,2.4-1.7l1.5,0.5c-0.3,1.3-1.5,2.9-3.9,2.9
		C194,142.1,192,140.4,192,137.7z"/>
	<path class="st2" d="M205.1,137.6c-0.2,0-0.3,0-0.5,0c-0.8,0-1.5,0.4-1.5,1.7v2.7h-1.6V136h1.5v0.9c0.4-0.8,1.2-0.9,1.7-0.9
		c0.1,0,0.3,0,0.4,0V137.6z"/>
	<path class="st2" d="M207.7,138.6l1.5-0.2c0.3,0,0.4-0.2,0.4-0.4c0-0.4-0.3-0.8-1-0.8c-0.7,0-1.1,0.4-1.1,1l-1.4-0.3
		c0.1-0.9,0.9-1.9,2.5-1.9c1.9,0,2.6,1.1,2.6,2.2v2.9c0,0.3,0,0.7,0.1,0.9h-1.5c0-0.2-0.1-0.5-0.1-0.7c-0.3,0.5-0.9,0.9-1.7,0.9
		c-1.3,0-2-0.9-2-1.8C205.9,139.3,206.7,138.7,207.7,138.6z M209.6,139.6v-0.3l-1.3,0.2c-0.4,0.1-0.7,0.3-0.7,0.7
		c0,0.3,0.3,0.7,0.8,0.7C208.9,140.9,209.6,140.6,209.6,139.6z"/>
	<path class="st2" d="M214.6,135.4v0.6h1.3v1.4h-1.3v4.5H213v-4.5h-1V136h1v-0.7c0-1.3,0.8-2.2,2.1-2.2c0.3,0,0.7,0.1,0.8,0.1v1.3
		c-0.1,0-0.2-0.1-0.5-0.1C215.1,134.6,214.6,134.7,214.6,135.4z"/>
	<path class="st2" d="M219.2,136h1.2v1.4h-1.2v2.5c0,0.5,0.2,0.7,0.7,0.7c0.2,0,0.4,0,0.5,0v1.3c-0.1,0.1-0.4,0.1-0.9,0.1
		c-1.2,0-1.9-0.7-1.9-1.8v-2.7h-1.1V136h0.3c0.6,0,0.9-0.4,0.9-0.9v-0.8h1.4V136z"/>
</g>
<polygon class="st0" points="225.6,260.3 175.6,260.3 150.6,303.6 175.6,346.9 225.6,346.9 250.6,303.6 "/>
<polygon class="st1" points="225,261.3 176.1,261.3 151.7,303.6 176.1,345.9 225,345.9 249.4,303.6 "/>
<g>
	<path class="st2" d="M175.4,308v-8.5h1.7v8.5H175.4z"/>
	<path class="st2" d="M180.5,308h-1.6v-5.9h1.5v0.7c0.4-0.6,1.1-0.9,1.7-0.9c1.5,0,2.1,1,2.1,2.3v3.7h-1.6v-3.4
		c0-0.7-0.3-1.2-1.1-1.2c-0.7,0-1.1,0.5-1.1,1.2V308z"/>
	<path class="st2" d="M187.1,305c0,1.1,0.7,1.7,1.5,1.7s1.2-0.5,1.4-1l1.4,0.5c-0.3,1-1.2,2-2.8,2c-1.7,0-3.1-1.3-3.1-3.1
		c0-1.8,1.3-3.1,3.1-3.1c1.6,0,2.5,1,2.8,2l-1.4,0.5c-0.1-0.5-0.5-1-1.3-1C187.7,303.3,187.1,303.9,187.1,305z"/>
	<path class="st2" d="M192.5,308v-8.7h1.6v8.7H192.5z"/>
	<path class="st2" d="M199.6,307.3c-0.3,0.6-1,0.8-1.6,0.8c-1.4,0-2.2-1-2.2-2.3v-3.7h1.6v3.4c0,0.7,0.3,1.2,1.1,1.2
		c0.7,0,1.1-0.5,1.1-1.2v-3.4h1.6v4.8c0,0.5,0,0.9,0.1,1.1h-1.5C199.6,307.8,199.6,307.6,199.6,307.3z"/>
	<path class="st2" d="M203.7,306c0,0.5,0.4,0.9,1.1,0.9c0.5,0,0.8-0.3,0.8-0.6c0-0.3-0.2-0.5-0.6-0.6l-0.8-0.2
		c-1.1-0.3-1.7-0.9-1.7-1.8c0-1.1,0.9-1.9,2.2-1.9c1.7,0,2.2,1.1,2.3,1.7l-1.3,0.3c0-0.3-0.3-0.8-1-0.8c-0.4,0-0.8,0.3-0.8,0.6
		c0,0.3,0.2,0.5,0.5,0.5l0.8,0.2c1.2,0.2,1.8,0.9,1.8,1.8c0,1-0.7,1.9-2.3,1.9c-1.8,0-2.4-1.2-2.5-1.8L203.7,306z"/>
	<path class="st2" d="M209.1,299.1c0.6,0,1,0.4,1,1c0,0.5-0.4,1-1,1c-0.5,0-1-0.4-1-1C208.1,299.6,208.6,299.1,209.1,299.1z
		 M208.3,308v-5.9h1.6v5.9H208.3z"/>
	<path class="st2" d="M214.9,308h-1.6l-2.4-5.9h1.8l1.5,4l1.4-4h1.7L214.9,308z"/>
	<path class="st2" d="M223.3,306.3c-0.3,1-1.2,1.9-2.7,1.9c-1.6,0-3-1.2-3-3.2c0-1.9,1.4-3.1,2.9-3.1c1.8,0,2.9,1.2,2.9,3.1
		c0,0.2,0,0.5,0,0.5h-4.2c0,0.8,0.7,1.3,1.5,1.3c0.7,0,1.2-0.4,1.3-0.9L223.3,306.3z M221.8,304.3c0-0.6-0.4-1.2-1.3-1.2
		c-0.8,0-1.3,0.6-1.3,1.2H221.8z"/>
</g>
<polygon class="st0" points="375.5,87.1 325.5,87.1 300.5,130.4 325.5,173.7 375.5,173.7 400.5,130.4 "/>
<polygon class="st1" points="375,88.1 326.1,88.1 301.7,130.4 326.1,172.7 375,172.7 399.4,130.4 "/>
<g>
	<path class="st2" d="M318.6,128v6.4H317V128h-2.5v-1.4h6.5v1.4H318.6z"/>
	<path class="st2" d="M324.5,130.4c-0.2,0-0.3,0-0.4,0c-0.7,0-1.4,0.4-1.4,1.5v2.5h-1.5V129h1.4v0.8c0.3-0.7,1.1-0.8,1.5-0.8
		c0.1,0,0.2,0,0.3,0V130.4z"/>
	<path class="st2" d="M326.9,131.3l1.3-0.2c0.3,0,0.4-0.2,0.4-0.4c0-0.4-0.3-0.7-0.9-0.7c-0.6,0-1,0.4-1,0.9l-1.3-0.3
		c0.1-0.8,0.9-1.8,2.3-1.8c1.7,0,2.4,1,2.4,2.1v2.7c0,0.3,0,0.7,0.1,0.9h-1.3c0-0.1-0.1-0.4-0.1-0.6c-0.3,0.4-0.8,0.8-1.6,0.8
		c-1.2,0-1.9-0.8-1.9-1.6C325.2,131.9,326,131.4,326.9,131.3z M328.6,132.2V132l-1.2,0.2c-0.4,0.1-0.7,0.3-0.7,0.7
		c0,0.3,0.2,0.6,0.7,0.6C328,133.5,328.6,133.2,328.6,132.2z"/>
	<path class="st2" d="M333,134.4h-1.5V129h1.4v0.7c0.3-0.6,1-0.8,1.6-0.8c1.3,0,2,1,2,2.1v3.4H335v-3.2c0-0.6-0.3-1.1-1-1.1
		c-0.6,0-1,0.5-1,1.1V134.4z"/>
	<path class="st2" d="M338.7,132.6c0,0.4,0.4,0.8,1,0.8c0.5,0,0.7-0.3,0.7-0.5c0-0.2-0.2-0.4-0.6-0.5l-0.7-0.2
		c-1-0.2-1.5-0.9-1.5-1.6c0-1,0.9-1.8,2-1.8c1.5,0,2.1,1,2.1,1.6l-1.2,0.3c0-0.3-0.3-0.7-0.9-0.7c-0.4,0-0.7,0.2-0.7,0.5
		c0,0.3,0.2,0.4,0.5,0.5l0.8,0.2c1.1,0.2,1.6,0.9,1.6,1.7c0,0.9-0.7,1.8-2.1,1.8c-1.6,0-2.2-1.1-2.3-1.7L338.7,132.6z"/>
	<path class="st2" d="M343,136.5V129h1.4v0.7c0.2-0.4,0.8-0.8,1.7-0.8c1.6,0,2.5,1.2,2.5,2.8c0,1.6-1,2.8-2.6,2.8
		c-0.7,0-1.3-0.3-1.6-0.7v2.6H343z M345.8,130.2c-0.7,0-1.4,0.6-1.4,1.5c0,1,0.6,1.5,1.4,1.5s1.3-0.6,1.3-1.5
		C347.1,130.7,346.5,130.2,345.8,130.2z"/>
	<path class="st2" d="M351,131.3l1.3-0.2c0.3,0,0.4-0.2,0.4-0.4c0-0.4-0.3-0.7-0.9-0.7c-0.6,0-1,0.4-1,0.9l-1.3-0.3
		c0.1-0.8,0.9-1.8,2.3-1.8c1.7,0,2.4,1,2.4,2.1v2.7c0,0.3,0,0.7,0.1,0.9h-1.3c0-0.1-0.1-0.4-0.1-0.6c-0.3,0.4-0.8,0.8-1.6,0.8
		c-1.2,0-1.9-0.8-1.9-1.6C349.4,131.9,350.1,131.4,351,131.3z M352.8,132.2V132l-1.2,0.2c-0.4,0.1-0.7,0.3-0.7,0.7
		c0,0.3,0.2,0.6,0.7,0.6C352.2,133.5,352.8,133.2,352.8,132.2z"/>
	<path class="st2" d="M359,130.4c-0.2,0-0.3,0-0.4,0c-0.7,0-1.4,0.4-1.4,1.5v2.5h-1.5V129h1.4v0.8c0.3-0.7,1.1-0.8,1.5-0.8
		c0.1,0,0.2,0,0.3,0V130.4z"/>
	<path class="st2" d="M364.8,132.8c-0.3,0.9-1.1,1.7-2.5,1.7c-1.5,0-2.8-1.1-2.8-2.9c0-1.7,1.3-2.8,2.7-2.8c1.7,0,2.7,1.1,2.7,2.8
		c0,0.2,0,0.4,0,0.5H361c0,0.7,0.6,1.2,1.4,1.2c0.7,0,1.1-0.3,1.2-0.8L364.8,132.8z M363.4,131.1c0-0.5-0.4-1.1-1.2-1.1
		c-0.8,0-1.2,0.6-1.2,1.1H363.4z"/>
	<path class="st2" d="M367.5,134.4H366V129h1.4v0.7c0.3-0.6,1-0.8,1.6-0.8c1.3,0,2,1,2,2.1v3.4h-1.5v-3.2c0-0.6-0.3-1.1-1-1.1
		c-0.6,0-1,0.5-1,1.1V134.4z"/>
	<path class="st2" d="M373.5,131.7c0,1,0.6,1.5,1.4,1.5s1.1-0.5,1.2-0.9l1.3,0.4c-0.2,0.9-1.1,1.8-2.5,1.8c-1.6,0-2.8-1.2-2.8-2.9
		c0-1.7,1.2-2.9,2.8-2.9c1.5,0,2.3,0.9,2.5,1.8l-1.3,0.4c-0.1-0.5-0.5-0.9-1.2-0.9C374.1,130.2,373.5,130.7,373.5,131.7z"/>
	<path class="st2" d="M378.7,136.5l1.3-2.8l-2.3-4.7h1.6l1.4,3.2l1.3-3.2h1.6l-3.4,7.5H378.7z"/>
</g>
<polygon class="st0" points="75.6,87.1 25.6,87.1 0.6,130.4 25.6,173.7 75.6,173.7 100.6,130.4 "/>
<polygon class="st1" points="75,88.1 26.1,88.1 1.7,130.4 26.1,172.7 75,172.7 99.5,130.4 "/>
<g>
	<path class="st2" d="M26.8,120.3v-3.5h-3.7v3.5h-1.7v-8.5h1.7v3.4h3.7v-3.4h1.7v8.5C28.5,120.3,26.8,120.3,26.8,120.3z"/>
	<path class="st2" d="M34.1,119.7c-0.3,0.6-1,0.8-1.6,0.8c-1.4,0-2.2-1-2.2-2.3v-3.7h1.6v3.4c0,0.7,0.3,1.2,1.1,1.2
		c0.7,0,1.1-0.5,1.1-1.2v-3.4h1.6v4.8c0,0.5,0,0.9,0.1,1.1h-1.5C34.1,120.2,34.1,120,34.1,119.7L34.1,119.7z"/>
	<path class="st2" d="M37.3,120.3v-5.9h1.5v0.7c0.3-0.6,1.1-0.9,1.7-0.9c0.8,0,1.5,0.3,1.8,1c0.5-0.7,1.1-1,1.9-1
		c1.1,0,2.1,0.7,2.1,2.2v3.8h-1.5v-3.5c0-0.6-0.3-1.1-1-1.1c-0.7,0-1.1,0.5-1.1,1.2v3.5h-1.6v-3.5c0-0.6-0.3-1.1-1-1.1
		c-0.7,0-1.1,0.5-1.1,1.2v3.5L37.3,120.3L37.3,120.3z"/>
	<path class="st2" d="M49.3,117l1.5-0.2c0.3,0,0.4-0.2,0.4-0.4c0-0.4-0.3-0.8-1-0.8c-0.7,0-1.1,0.4-1.1,1l-1.4-0.3
		c0.1-0.9,0.9-1.9,2.5-1.9c1.9,0,2.6,1.1,2.6,2.2v2.9c0,0.3,0,0.7,0.1,0.9h-1.5c0-0.2-0.1-0.5-0.1-0.7c-0.3,0.5-0.9,0.9-1.7,0.9
		c-1.3,0-2-0.9-2-1.8C47.6,117.7,48.4,117.1,49.3,117L49.3,117z M51.2,118v-0.3l-1.3,0.2c-0.4,0.1-0.7,0.3-0.7,0.7
		c0,0.3,0.3,0.7,0.8,0.7C50.6,119.3,51.2,119,51.2,118z"/>
	<path class="st2" d="M56,120.3h-1.6v-5.9H56v0.7c0.4-0.6,1.1-0.9,1.7-0.9c1.5,0,2.1,1,2.1,2.3v3.7h-1.6v-3.4c0-0.7-0.3-1.2-1.1-1.2
		c-0.7,0-1.1,0.5-1.1,1.2V120.3z"/>
	<path class="st2" d="M62.2,111.5c0.6,0,1,0.4,1,1c0,0.5-0.4,1-1,1c-0.5,0-1-0.4-1-1C61.2,112,61.7,111.5,62.2,111.5z M61.4,120.3
		v-5.9H63v5.9H61.4z"/>
	<path class="st2" d="M66.7,114.4h1.2v1.4h-1.2v2.5c0,0.5,0.2,0.7,0.7,0.7c0.2,0,0.4,0,0.5,0v1.3c-0.1,0.1-0.4,0.1-0.9,0.1
		c-1.2,0-1.9-0.7-1.9-1.8v-2.7H64v-1.4h0.3c0.6,0,0.9-0.4,0.9-0.9v-0.8h1.4L66.7,114.4L66.7,114.4z"/>
	<path class="st2" d="M69.7,122.7l1.4-3.1l-2.5-5.2h1.8l1.6,3.5l1.5-3.5h1.7l-3.7,8.2C71.4,122.7,69.7,122.7,69.7,122.7z"/>
	<path class="st2" d="M75.9,118.4c0.7,0,1.2,0.6,1.2,1.4c0,1.8-1.2,2.5-2.1,2.6v-0.8c0.5-0.1,1.1-0.6,1.1-1.3c0,0-0.2,0.1-0.3,0.1
		c-0.6,0-1-0.4-1-1S75.3,118.4,75.9,118.4z"/>
	<path class="st2" d="M37.4,128.7c-0.1-0.5-0.5-1.2-1.5-1.2c-0.8,0-1.3,0.5-1.3,1.1c0,0.5,0.3,0.8,0.9,1l1.2,0.2
		c1.5,0.3,2.4,1.3,2.4,2.5c0,1.3-1.1,2.6-3.1,2.6c-2.3,0-3.2-1.5-3.4-2.7l1.5-0.4c0.1,0.8,0.7,1.6,1.9,1.6c0.9,0,1.4-0.4,1.4-1
		c0-0.5-0.4-0.9-1-1l-1.2-0.2c-1.4-0.3-2.2-1.2-2.2-2.4c0-1.5,1.4-2.7,3-2.7c2.1,0,2.9,1.2,3,2.2C38.9,128.3,37.4,128.7,37.4,128.7z
		"/>
	<path class="st2" d="M46,131.8c0,1.8-1.3,3.1-3.1,3.1c-1.8,0-3.1-1.3-3.1-3.1c0-1.8,1.3-3.1,3.1-3.1C44.7,128.7,46,130,46,131.8z
		 M44.4,131.8c0-1.1-0.7-1.7-1.5-1.7c-0.8,0-1.5,0.6-1.5,1.7c0,1.1,0.7,1.7,1.5,1.7C43.7,133.5,44.4,132.9,44.4,131.8z"/>
	<path class="st2" d="M48.4,131.8c0,1.1,0.7,1.7,1.5,1.7s1.2-0.5,1.4-1l1.4,0.5c-0.3,1-1.2,2-2.8,2c-1.7,0-3.1-1.3-3.1-3.1
		c0-1.8,1.3-3.1,3.1-3.1c1.6,0,2.5,1,2.8,2l-1.4,0.5c-0.1-0.5-0.5-1-1.3-1C49.1,130.1,48.4,130.7,48.4,131.8z"/>
	<path class="st2" d="M54.6,125.9c0.6,0,1,0.4,1,1c0,0.5-0.4,1-1,1c-0.5,0-1-0.4-1-1C53.7,126.4,54.1,125.9,54.6,125.9z M53.8,134.7
		v-5.9h1.6v5.9H53.8z"/>
	<path class="st2" d="M58.5,131.4l1.5-0.2c0.3,0,0.4-0.2,0.4-0.4c0-0.4-0.3-0.8-1-0.8c-0.7,0-1.1,0.4-1.1,1l-1.4-0.3
		c0.1-0.9,0.9-1.9,2.5-1.9c1.9,0,2.6,1.1,2.6,2.2v2.9c0,0.3,0,0.7,0.1,0.9h-1.5c0-0.2-0.1-0.5-0.1-0.7c-0.3,0.5-0.9,0.9-1.7,0.9
		c-1.3,0-2-0.9-2-1.8C56.8,132.1,57.6,131.5,58.5,131.4L58.5,131.4z M60.4,132.4v-0.3l-1.3,0.2c-0.4,0.1-0.7,0.3-0.7,0.7
		c0,0.3,0.3,0.7,0.8,0.7C59.8,133.7,60.4,133.4,60.4,132.4z"/>
	<path class="st2" d="M63.6,134.7v-8.7h1.6v8.7C65.2,134.7,63.6,134.7,63.6,134.7z"/>
	<path class="st2" d="M29.1,145.9v3.2h-1.7v-8.5h3.2c1.7,0,2.8,1.1,2.8,2.7c0,1.5-1.1,2.7-2.8,2.7C30.6,145.9,29.1,145.9,29.1,145.9
		z M30.4,144.5c0.8,0,1.3-0.5,1.3-1.2c0-0.8-0.5-1.2-1.3-1.2h-1.3v2.4H30.4z"/>
	<path class="st2" d="M38.2,148.5c-0.3,0.6-1,0.8-1.6,0.8c-1.4,0-2.2-1-2.2-2.3v-3.7h1.6v3.4c0,0.7,0.3,1.2,1.1,1.2
		c0.7,0,1.1-0.5,1.1-1.2v-3.4h1.6v4.8c0,0.5,0,0.9,0.1,1.1h-1.5C38.2,149,38.2,148.8,38.2,148.5L38.2,148.5z"/>
	<path class="st2" d="M45,144.8c-0.2,0-0.3,0-0.5,0c-0.8,0-1.5,0.4-1.5,1.7v2.7h-1.6v-5.9h1.5v0.9c0.4-0.8,1.2-0.9,1.7-0.9
		c0.1,0,0.3,0,0.4,0C45,143.2,45,144.8,45,144.8z"/>
	<path class="st2" d="M46.1,151.4v-8.2h1.5v0.7c0.3-0.5,0.9-0.9,1.8-0.9c1.7,0,2.7,1.3,2.7,3.1c0,1.8-1.1,3.1-2.8,3.1
		c-0.8,0-1.4-0.3-1.7-0.7v2.9C47.7,151.4,46.1,151.4,46.1,151.4z M49.2,144.5c-0.8,0-1.5,0.6-1.5,1.7s0.7,1.7,1.5,1.7
		s1.5-0.6,1.5-1.7C50.6,145.2,50,144.5,49.2,144.5z"/>
	<path class="st2" d="M59.2,146.2c0,1.8-1.3,3.1-3.1,3.1c-1.8,0-3.1-1.3-3.1-3.1c0-1.8,1.3-3.1,3.1-3.1
		C57.9,143.1,59.2,144.4,59.2,146.2z M57.6,146.2c0-1.1-0.7-1.7-1.5-1.7c-0.8,0-1.5,0.6-1.5,1.7c0,1.1,0.7,1.7,1.5,1.7
		C56.9,147.9,57.6,147.3,57.6,146.2z"/>
	<path class="st2" d="M61.3,147.2c0,0.5,0.4,0.9,1.1,0.9c0.5,0,0.8-0.3,0.8-0.6c0-0.3-0.2-0.5-0.6-0.6l-0.8-0.2
		c-1.1-0.3-1.7-0.9-1.7-1.8c0-1.1,0.9-1.9,2.2-1.9c1.7,0,2.2,1.1,2.3,1.7l-1.3,0.3c0-0.3-0.3-0.8-1-0.8c-0.4,0-0.8,0.3-0.8,0.6
		c0,0.3,0.2,0.5,0.5,0.5l0.8,0.2c1.2,0.2,1.8,0.9,1.8,1.8c0,1-0.7,1.9-2.3,1.9c-1.8,0-2.4-1.2-2.5-1.8
		C60,147.5,61.3,147.2,61.3,147.2z"/>
	<path class="st2" d="M71.3,147.5c-0.3,1-1.2,1.9-2.7,1.9c-1.6,0-3-1.2-3-3.2c0-1.9,1.4-3.1,2.9-3.1c1.8,0,2.9,1.2,2.9,3.1
		c0,0.2,0,0.5,0,0.5h-4.2c0,0.8,0.7,1.3,1.5,1.3c0.7,0,1.2-0.4,1.3-0.9L71.3,147.5z M69.8,145.5c0-0.6-0.4-1.2-1.3-1.2
		c-0.8,0-1.3,0.6-1.3,1.2H69.8L69.8,145.5z"/>
</g>
<polygon class="st0" points="300.6,217 250.6,217 225.6,260.3 250.6,303.6 300.6,303.6 325.6,260.3 "/>
<polygon class="st1" points="300,218 251.1,218 226.7,260.3 251.1,302.6 300,302.6 324.4,260.3 "/>
<g>
	<path class="st2" d="M262.3,257.7l-0.1-0.9c-0.4,0.5-1.1,1.1-2.3,1.1c-2.1,0-3.9-1.5-3.9-4.1s1.9-4.1,4-4.1c2,0,3.2,1.2,3.6,2.4
		l-1.5,0.5c-0.2-0.7-0.8-1.5-2.1-1.5c-1.2,0-2.5,0.8-2.5,2.7c0,1.8,1.2,2.7,2.5,2.7c1.4,0,2-1,2.1-1.5h-2.5v-1.3h3.9v4.1H262.3z"/>
	<path class="st2" d="M264.9,257.7v-8h1.5v8H264.9z"/>
	<path class="st2" d="M273.2,255c0,1.7-1.2,2.9-2.8,2.9s-2.8-1.2-2.8-2.9c0-1.7,1.2-2.9,2.8-2.9S273.2,253.3,273.2,255z M271.8,255
		c0-1-0.7-1.5-1.4-1.5c-0.7,0-1.4,0.5-1.4,1.5c0,1,0.7,1.5,1.4,1.5C271.1,256.5,271.8,256,271.8,255z"/>
	<path class="st2" d="M274.4,257.7v-8h1.4v3.1c0.2-0.4,0.8-0.7,1.6-0.7c1.6,0,2.5,1.2,2.5,2.8c0,1.6-1,2.9-2.6,2.9
		c-0.7,0-1.3-0.3-1.6-0.8v0.7H274.4z M277.2,253.4c-0.7,0-1.4,0.5-1.4,1.5c0,1,0.6,1.5,1.4,1.5c0.7,0,1.3-0.5,1.3-1.5
		S277.9,253.4,277.2,253.4z"/>
	<path class="st2" d="M282.4,254.6l1.3-0.2c0.3,0,0.4-0.2,0.4-0.4c0-0.4-0.3-0.7-0.9-0.7c-0.6,0-1,0.4-1,0.9l-1.3-0.3
		c0.1-0.8,0.9-1.8,2.3-1.8c1.7,0,2.4,1,2.4,2.1v2.7c0,0.3,0,0.7,0.1,0.9h-1.3c0-0.1-0.1-0.4-0.1-0.6c-0.3,0.4-0.8,0.8-1.6,0.8
		c-1.2,0-1.9-0.8-1.9-1.6C280.8,255.2,281.5,254.7,282.4,254.6z M284.1,255.5v-0.2l-1.2,0.2c-0.4,0.1-0.7,0.3-0.7,0.7
		c0,0.3,0.2,0.6,0.7,0.6C283.6,256.8,284.1,256.5,284.1,255.5z"/>
	<path class="st2" d="M287,257.7v-8h1.5v8H287z"/>
	<path class="st2" d="M290.9,255.9c0.7,0,1.1,0.5,1.1,1.3c0,1.6-1.1,2.3-1.9,2.4v-0.7c0.5-0.1,1-0.6,1-1.2c0,0-0.2,0.1-0.3,0.1
		c-0.5,0-0.9-0.4-0.9-0.9C289.9,256.3,290.3,255.9,290.9,255.9L290.9,255.9z"/>
	<path class="st2" d="M238.7,267c0-2.5,1.9-4.1,4-4.1c2.2,0,3.3,1.3,3.6,2.6l-1.4,0.5c-0.2-0.7-0.8-1.6-2.1-1.6
		c-1.2,0-2.4,0.8-2.4,2.6c0,1.7,1.2,2.6,2.4,2.6c1.3,0,2-0.9,2.2-1.6l1.4,0.4c-0.3,1.2-1.4,2.7-3.6,2.7
		C240.6,271.1,238.7,269.5,238.7,267z"/>
	<path class="st2" d="M252.6,268.2c0,1.7-1.2,2.9-2.8,2.9s-2.8-1.2-2.8-2.9c0-1.7,1.2-2.9,2.8-2.9S252.6,266.5,252.6,268.2z
		 M251.1,268.2c0-1-0.7-1.5-1.4-1.5c-0.7,0-1.4,0.5-1.4,1.5c0,1,0.7,1.5,1.4,1.5C250.5,269.7,251.1,269.2,251.1,268.2z"/>
	<path class="st2" d="M254.5,269.1c0,0.4,0.4,0.8,1,0.8c0.5,0,0.7-0.3,0.7-0.5c0-0.2-0.2-0.4-0.6-0.5l-0.7-0.2
		c-1-0.2-1.5-0.9-1.5-1.6c0-1,0.9-1.8,2-1.8c1.5,0,2.1,1,2.1,1.6l-1.2,0.3c0-0.3-0.3-0.7-0.9-0.7c-0.4,0-0.7,0.2-0.7,0.5
		c0,0.3,0.2,0.4,0.5,0.5l0.8,0.2c1.1,0.2,1.6,0.9,1.6,1.7c0,0.9-0.7,1.8-2.1,1.8c-1.6,0-2.2-1.1-2.3-1.7L254.5,269.1z"/>
	<path class="st2" d="M258.8,270.9v-5.4h1.4v0.7c0.3-0.5,1-0.8,1.6-0.8c0.7,0,1.3,0.3,1.6,0.9c0.4-0.7,1-0.9,1.7-0.9
		c1,0,2,0.6,2,2.1v3.5h-1.4v-3.2c0-0.6-0.3-1-1-1c-0.6,0-1,0.5-1,1.1v3.2h-1.5v-3.2c0-0.6-0.3-1-1-1c-0.6,0-1,0.5-1,1.1v3.2H258.8z"
		/>
	<path class="st2" d="M273.8,268.2c0,1.7-1.2,2.9-2.8,2.9s-2.8-1.2-2.8-2.9c0-1.7,1.2-2.9,2.8-2.9S273.8,266.5,273.8,268.2z
		 M272.4,268.2c0-1-0.7-1.5-1.4-1.5c-0.7,0-1.4,0.5-1.4,1.5c0,1,0.7,1.5,1.4,1.5C271.7,269.7,272.4,269.2,272.4,268.2z"/>
	<path class="st2" d="M275,273v-7.5h1.4v0.7c0.2-0.4,0.8-0.8,1.7-0.8c1.6,0,2.5,1.2,2.5,2.8c0,1.6-1,2.8-2.6,2.8
		c-0.7,0-1.3-0.3-1.6-0.7v2.6H275z M277.8,266.7c-0.7,0-1.4,0.6-1.4,1.5c0,1,0.6,1.5,1.4,1.5s1.3-0.6,1.3-1.5
		C279.1,267.2,278.5,266.7,277.8,266.7z"/>
	<path class="st2" d="M287,268.2c0,1.7-1.2,2.9-2.8,2.9s-2.8-1.2-2.8-2.9c0-1.7,1.2-2.9,2.8-2.9S287,266.5,287,268.2z M285.5,268.2
		c0-1-0.7-1.5-1.4-1.5s-1.4,0.5-1.4,1.5c0,1,0.7,1.5,1.4,1.5S285.5,269.2,285.5,268.2z"/>
	<path class="st2" d="M288.1,270.9v-8h1.5v8H288.1z"/>
	<path class="st2" d="M291.9,262.8c0.5,0,0.9,0.4,0.9,0.9c0,0.5-0.4,0.9-0.9,0.9c-0.5,0-0.9-0.4-0.9-0.9
		C291,263.2,291.4,262.8,291.9,262.8z M291.2,270.9v-5.4h1.5v5.4H291.2z"/>
	<path class="st2" d="M296,265.5h1.1v1.3H296v2.3c0,0.5,0.2,0.6,0.6,0.6c0.2,0,0.4,0,0.5,0v1.2c-0.1,0.1-0.4,0.1-0.8,0.1
		c-1.1,0-1.7-0.6-1.7-1.7v-2.5h-1v-1.3h0.3c0.6,0,0.8-0.4,0.8-0.9v-0.8h1.3V265.5z"/>
	<path class="st2" d="M299.6,267.8l1.3-0.2c0.3,0,0.4-0.2,0.4-0.4c0-0.4-0.3-0.7-0.9-0.7c-0.6,0-1,0.4-1,0.9l-1.3-0.3
		c0.1-0.8,0.9-1.8,2.3-1.8c1.7,0,2.4,1,2.4,2.1v2.7c0,0.3,0,0.7,0.1,0.9h-1.3c0-0.1-0.1-0.4-0.1-0.6c-0.3,0.4-0.8,0.8-1.6,0.8
		c-1.2,0-1.9-0.8-1.9-1.6C298,268.4,298.7,267.9,299.6,267.8z M301.4,268.7v-0.2l-1.2,0.2c-0.4,0.1-0.7,0.3-0.7,0.7
		c0,0.3,0.2,0.6,0.7,0.6C300.8,270,301.4,269.7,301.4,268.7z"/>
	<path class="st2" d="M305.7,270.9h-1.5v-5.4h1.4v0.7c0.3-0.6,1-0.8,1.6-0.8c1.3,0,2,1,2,2.1v3.4h-1.5v-3.2c0-0.6-0.3-1.1-1-1.1
		c-0.6,0-1,0.5-1,1.1V270.9z"/>
</g>
<polygon class="st0" points="150.6,217 100.6,217 75.6,260.3 100.6,303.6 150.6,303.6 175.6,260.3 "/>
<polygon class="st1" points="150,218 101.2,218 76.7,260.3 101.2,302.6 150,302.6 174.5,260.3 "/>
<g>
	<path class="st2" d="M97.7,264.7v-8.5h5.4v1.6h-3.7v2.1h3.3v1.5h-3.3v3.3H97.7z"/>
	<path class="st2" d="M104.3,264.7V256h1.6v8.7H104.3z"/>
	<path class="st2" d="M112.9,263c-0.3,1-1.2,1.9-2.7,1.9c-1.6,0-3-1.2-3-3.2c0-1.9,1.4-3.1,2.9-3.1c1.8,0,2.9,1.2,2.9,3.1
		c0,0.2,0,0.5,0,0.5h-4.2c0,0.8,0.7,1.3,1.5,1.3c0.7,0,1.2-0.4,1.3-0.9L112.9,263L112.9,263z M111.4,261c0-0.6-0.4-1.2-1.3-1.2
		c-0.8,0-1.3,0.6-1.3,1.2C108.8,261,111.4,261,111.4,261z"/>
	<path class="st2" d="M115.5,261.7l-2.1-2.9h1.9c0.2,0.3,1,1.4,1.2,1.8l1.2-1.8h1.8l-2.1,2.9l2.1,3h-1.9l-1.2-1.8
		c-0.2,0.3-1,1.5-1.2,1.8h-1.8L115.5,261.7z"/>
	<path class="st2" d="M121.3,255.8c0.6,0,1,0.4,1,1c0,0.5-0.4,1-1,1c-0.5,0-1-0.4-1-1C120.3,256.3,120.8,255.8,121.3,255.8z
		 M120.5,264.7v-5.9h1.6v5.9H120.5z"/>
	<path class="st2" d="M123.8,264.7V256h1.6v3.4c0.3-0.4,0.9-0.8,1.8-0.8c1.7,0,2.7,1.3,2.7,3.1c0,1.8-1.1,3.1-2.8,3.1
		c-0.8,0-1.4-0.4-1.8-0.9v0.7H123.8z M126.9,260c-0.8,0-1.5,0.6-1.5,1.7c0,1.1,0.7,1.7,1.5,1.7c0.8,0,1.5-0.6,1.5-1.7
		C128.3,260.6,127.7,260,126.9,260z"/>
	<path class="st2" d="M132,255.8c0.6,0,1,0.4,1,1c0,0.5-0.4,1-1,1c-0.5,0-1-0.4-1-1C131,256.3,131.4,255.8,132,255.8z M131.2,264.7
		v-5.9h1.6v5.9H131.2z"/>
	<path class="st2" d="M134.5,264.7V256h1.6v8.7H134.5z"/>
	<path class="st2" d="M138.6,255.8c0.6,0,1,0.4,1,1c0,0.5-0.4,1-1,1c-0.5,0-1-0.4-1-1C137.6,256.3,138,255.8,138.6,255.8z
		 M137.8,264.7v-5.9h1.6v5.9H137.8z"/>
	<path class="st2" d="M143,258.8h1.2v1.4H143v2.5c0,0.5,0.2,0.7,0.7,0.7c0.2,0,0.4,0,0.5,0v1.3c-0.1,0.1-0.4,0.1-0.9,0.1
		c-1.2,0-1.9-0.7-1.9-1.8v-2.7h-1.1v-1.4h0.3c0.6,0,0.9-0.4,0.9-0.9V257h1.4V258.8z"/>
	<path class="st2" d="M146.1,267l1.4-3.1l-2.5-5.2h1.8l1.6,3.5l1.5-3.5h1.7l-3.7,8.2H146.1z"/>
</g>
<polygon class="st0" points="225.6,173.7 175.6,173.7 150.6,217 175.6,260.3 225.6,260.3 250.6,217 "/>
<polygon class="st3" points="225,174.7 176.1,174.7 151.7,217 176.1,259.3 225,259.3 249.4,217 "/>
<g>
	<path class="st2" d="M176,219.4h-3.5l-0.7,1.9h-1.8l3.3-8.5h1.9l3.2,8.5h-1.8L176,219.4z M173.1,217.9h2.4l-1.2-3.2L173.1,217.9z"
		/>
	<path class="st2" d="M183.1,220.7c-0.3,0.6-1,0.8-1.6,0.8c-1.4,0-2.2-1-2.2-2.3v-3.7h1.6v3.4c0,0.7,0.3,1.2,1.1,1.2
		c0.7,0,1.1-0.5,1.1-1.2v-3.4h1.6v4.8c0,0.5,0,0.9,0.1,1.1h-1.5C183.1,221.2,183.1,221,183.1,220.7z"/>
	<path class="st2" d="M188.3,215.5h1.2v1.4h-1.2v2.5c0,0.5,0.2,0.7,0.7,0.7c0.2,0,0.4,0,0.5,0v1.3c-0.1,0.1-0.4,0.1-0.9,0.1
		c-1.2,0-1.9-0.7-1.9-1.8v-2.7h-1.1v-1.4h0.3c0.6,0,0.9-0.4,0.9-0.9v-0.8h1.4V215.5z"/>
	<path class="st2" d="M196.5,218.4c0,1.8-1.3,3.1-3.1,3.1c-1.8,0-3.1-1.3-3.1-3.1c0-1.8,1.3-3.1,3.1-3.1
		C195.2,215.3,196.5,216.6,196.5,218.4z M194.9,218.4c0-1.1-0.7-1.7-1.5-1.7c-0.8,0-1.5,0.6-1.5,1.7c0,1.1,0.7,1.7,1.5,1.7
		C194.2,220.1,194.9,219.5,194.9,218.4z"/>
	<path class="st2" d="M199.4,221.4h-1.6v-5.9h1.5v0.7c0.4-0.6,1.1-0.9,1.7-0.9c1.5,0,2.1,1,2.1,2.3v3.7h-1.6v-3.4
		c0-0.7-0.3-1.2-1.1-1.2c-0.7,0-1.1,0.5-1.1,1.2V221.4z"/>
	<path class="st2" d="M210.5,218.4c0,1.8-1.3,3.1-3.1,3.1c-1.8,0-3.1-1.3-3.1-3.1c0-1.8,1.3-3.1,3.1-3.1
		C209.2,215.3,210.5,216.6,210.5,218.4z M208.9,218.4c0-1.1-0.7-1.7-1.5-1.7c-0.8,0-1.5,0.6-1.5,1.7c0,1.1,0.7,1.7,1.5,1.7
		C208.2,220.1,208.9,219.5,208.9,218.4z"/>
	<path class="st2" d="M211.8,221.4v-5.9h1.5v0.7c0.3-0.6,1.1-0.9,1.7-0.9c0.8,0,1.5,0.3,1.8,1c0.5-0.7,1.1-1,1.9-1
		c1.1,0,2.1,0.7,2.1,2.2v3.8h-1.5v-3.5c0-0.6-0.3-1.1-1-1.1c-0.7,0-1.1,0.5-1.1,1.2v3.5h-1.6v-3.5c0-0.6-0.3-1.1-1-1.1
		c-0.7,0-1.1,0.5-1.1,1.2v3.5H211.8z"/>
	<path class="st2" d="M222.7,223.7l1.4-3.1l-2.5-5.2h1.8l1.6,3.5l1.5-3.5h1.7l-3.7,8.2H222.7z"/>
</g>
<polygon class="st0" points="375.5,173.7 325.5,173.7 300.5,217 325.5,260.3 375.5,260.3 400.5,217 "/>
<polygon class="st1" points="375,174.7 326.1,174.7 301.7,217 326.1,259.3 375,259.3 399.4,217 "/>
<g>
	<path class="st2" d="M335.7,214.2v-3.5H332v3.5h-1.7v-8.5h1.7v3.4h3.7v-3.4h1.7v8.5H335.7z"/>
	<path class="st2" d="M340.6,210.8l1.5-0.2c0.3,0,0.4-0.2,0.4-0.4c0-0.4-0.3-0.8-1-0.8c-0.7,0-1.1,0.4-1.1,1L339,210
		c0.1-0.9,0.9-1.9,2.5-1.9c1.9,0,2.6,1.1,2.6,2.2v2.9c0,0.3,0,0.7,0.1,0.9h-1.5c0-0.2-0.1-0.5-0.1-0.7c-0.3,0.5-0.9,0.9-1.7,0.9
		c-1.3,0-2-0.9-2-1.8C338.9,211.5,339.6,210.9,340.6,210.8z M342.5,211.8v-0.3l-1.3,0.2c-0.4,0.1-0.7,0.3-0.7,0.7
		c0,0.3,0.3,0.7,0.8,0.7C341.9,213.1,342.5,212.8,342.5,211.8z"/>
	<path class="st2" d="M348.9,214.2h-1.6l-2.4-5.9h1.8l1.5,4l1.4-4h1.7L348.9,214.2z"/>
	<path class="st2" d="M352.9,205.3c0.6,0,1,0.4,1,1c0,0.5-0.4,1-1,1c-0.5,0-1-0.4-1-1C351.9,205.8,352.4,205.3,352.9,205.3z
		 M352.1,214.2v-5.9h1.6v5.9H352.1z"/>
	<path class="st2" d="M357,214.2h-1.6v-5.9h1.5v0.7c0.4-0.6,1.1-0.9,1.7-0.9c1.5,0,2.1,1,2.1,2.3v3.7h-1.6v-3.4
		c0-0.7-0.3-1.2-1.1-1.2c-0.7,0-1.1,0.5-1.1,1.2V214.2z"/>
	<path class="st2" d="M363.4,214.1c0.1,0.6,0.6,1.1,1.4,1.1c1,0,1.6-0.5,1.6-1.6v-0.4c-0.2,0.4-0.8,0.8-1.6,0.8
		c-1.6,0-2.7-1.2-2.7-2.9c0-1.6,1.1-2.9,2.7-2.9c0.9,0,1.5,0.4,1.7,0.8v-0.7h1.5v5.3c0,1.6-0.9,3.1-3.1,3.1c-1.6,0-2.7-1-2.9-2.1
		L363.4,214.1z M366.4,211c0-0.9-0.6-1.5-1.4-1.5c-0.8,0-1.4,0.6-1.4,1.5c0,0.9,0.6,1.5,1.4,1.5C365.8,212.5,366.4,211.9,366.4,211z
		"/>
	<path class="st2" d="M331.7,225.2l1.5-0.2c0.3,0,0.4-0.2,0.4-0.4c0-0.4-0.3-0.8-1-0.8c-0.7,0-1.1,0.4-1.1,1l-1.4-0.3
		c0.1-0.9,0.9-1.9,2.5-1.9c1.9,0,2.6,1.1,2.6,2.2v2.9c0,0.3,0,0.7,0.1,0.9h-1.5c0-0.2-0.1-0.5-0.1-0.7c-0.3,0.5-0.9,0.9-1.7,0.9
		c-1.3,0-2-0.9-2-1.8C329.9,225.9,330.7,225.3,331.7,225.2z M333.6,226.2v-0.3l-1.3,0.2c-0.4,0.1-0.7,0.3-0.7,0.7
		c0,0.3,0.3,0.7,0.8,0.7C333,227.5,333.6,227.2,333.6,226.2z"/>
	<path class="st2" d="M343,228.6h-1.6l-2.4-5.9h1.8l1.5,4l1.4-4h1.7L343,228.6z"/>
	<path class="st2" d="M351.8,225.6c0,1.8-1.3,3.1-3.1,3.1c-1.8,0-3.1-1.3-3.1-3.1c0-1.8,1.3-3.1,3.1-3.1
		C350.5,222.5,351.8,223.8,351.8,225.6z M350.2,225.6c0-1.1-0.7-1.7-1.5-1.7c-0.8,0-1.5,0.6-1.5,1.7c0,1.1,0.7,1.7,1.5,1.7
		C349.5,227.3,350.2,226.7,350.2,225.6z"/>
	<path class="st2" d="M353.9,219.7c0.6,0,1,0.4,1,1c0,0.5-0.4,1-1,1c-0.5,0-1-0.4-1-1C352.9,220.2,353.3,219.7,353.9,219.7z
		 M353.1,228.6v-5.9h1.6v5.9H353.1z"/>
	<path class="st2" d="M357.5,225.6c0,1.1,0.7,1.7,1.5,1.7s1.2-0.5,1.4-1l1.4,0.5c-0.3,1-1.2,2-2.8,2c-1.7,0-3.1-1.3-3.1-3.1
		c0-1.8,1.3-3.1,3.1-3.1c1.6,0,2.5,1,2.8,2l-1.4,0.5c-0.1-0.5-0.5-1-1.3-1C358.2,223.9,357.5,224.5,357.5,225.6z"/>
	<path class="st2" d="M368.2,226.9c-0.3,1-1.2,1.9-2.7,1.9c-1.6,0-3-1.2-3-3.2c0-1.9,1.4-3.1,2.9-3.1c1.8,0,2.9,1.2,2.9,3.1
		c0,0.2,0,0.5,0,0.5h-4.2c0,0.8,0.7,1.3,1.5,1.3c0.7,0,1.2-0.4,1.3-0.9L368.2,226.9z M366.7,224.9c0-0.6-0.4-1.2-1.3-1.2
		c-0.8,0-1.3,0.6-1.3,1.2H366.7z"/>
</g>
<polygon class="st0" points="75.6,173.7 25.6,173.7 0.6,217 25.6,260.3 75.6,260.3 100.6,217 "/>
<polygon class="st1" points="75,174.7 26.1,174.7 1.7,217 26.1,259.3 75,259.3 99.5,217 "/>
<g>
	<path class="st2" d="M16.6,217.1c0-2.7,2.1-4.4,4.3-4.4c2.4,0,3.6,1.4,3.9,2.8l-1.6,0.5c-0.2-0.8-0.9-1.7-2.3-1.7
		c-1.3,0-2.6,0.9-2.6,2.8c0,1.8,1.3,2.8,2.6,2.8c1.5,0,2.2-0.9,2.4-1.7l1.5,0.5c-0.3,1.3-1.5,2.9-3.9,2.9
		C18.6,221.5,16.6,219.8,16.6,217.1L16.6,217.1z"/>
	<path class="st2" d="M31.7,218.4c0,1.8-1.3,3.1-3.1,3.1c-1.8,0-3.1-1.3-3.1-3.1c0-1.8,1.3-3.1,3.1-3.1
		C30.4,215.3,31.7,216.6,31.7,218.4z M30.1,218.4c0-1.1-0.7-1.7-1.5-1.7c-0.8,0-1.5,0.6-1.5,1.7c0,1.1,0.7,1.7,1.5,1.7
		C29.4,220.1,30.1,219.5,30.1,218.4z"/>
	<path class="st2" d="M33,221.4v-5.9h1.5v0.7c0.3-0.6,1.1-0.9,1.7-0.9c0.8,0,1.5,0.3,1.8,1c0.5-0.7,1.1-1,1.9-1
		c1.1,0,2.1,0.7,2.1,2.2v3.8h-1.5v-3.5c0-0.6-0.3-1.1-1-1.1c-0.7,0-1.1,0.5-1.1,1.2v3.5h-1.6v-3.5c0-0.6-0.3-1.1-1-1.1
		c-0.7,0-1.1,0.5-1.1,1.2v3.5H33L33,221.4z"/>
	<path class="st2" d="M43.6,221.4v-5.9h1.5v0.7c0.3-0.6,1.1-0.9,1.7-0.9c0.8,0,1.5,0.3,1.8,1c0.5-0.7,1.1-1,1.9-1
		c1.1,0,2.1,0.7,2.1,2.2v3.8h-1.5v-3.5c0-0.6-0.3-1.1-1-1.1c-0.7,0-1.1,0.5-1.1,1.2v3.5h-1.6v-3.5c0-0.6-0.3-1.1-1-1.1
		c-0.7,0-1.1,0.5-1.1,1.2v3.5H43.6L43.6,221.4z"/>
	<path class="st2" d="M58,220.7c-0.3,0.6-1,0.8-1.6,0.8c-1.4,0-2.2-1-2.2-2.3v-3.7h1.6v3.4c0,0.7,0.3,1.2,1.1,1.2
		c0.7,0,1.1-0.5,1.1-1.2v-3.4h1.6v4.8c0,0.5,0,0.9,0.1,1.1h-1.5C58.1,221.2,58,221,58,220.7L58,220.7z"/>
	<path class="st2" d="M62.8,221.4h-1.6v-5.9h1.5v0.7c0.4-0.6,1.1-0.9,1.7-0.9c1.5,0,2.1,1,2.1,2.3v3.7H65v-3.4
		c0-0.7-0.3-1.2-1.1-1.2c-0.7,0-1.1,0.5-1.1,1.2C62.8,218,62.8,221.4,62.8,221.4z"/>
	<path class="st2" d="M69.1,212.5c0.6,0,1,0.4,1,1c0,0.5-0.4,1-1,1c-0.5,0-1-0.4-1-1C68.1,213,68.5,212.5,69.1,212.5z M68.3,221.4
		v-5.9h1.6v5.9H68.3z"/>
	<path class="st2" d="M73.5,215.5h1.2v1.4h-1.2v2.5c0,0.5,0.2,0.7,0.7,0.7c0.2,0,0.4,0,0.5,0v1.3c-0.1,0.1-0.4,0.1-0.9,0.1
		c-1.2,0-1.9-0.7-1.9-1.8v-2.7h-1.1v-1.4h0.3c0.6,0,0.9-0.4,0.9-0.9v-0.8h1.4V215.5z"/>
	<path class="st2" d="M76.6,223.7l1.4-3.1l-2.5-5.2h1.8l1.6,3.5l1.5-3.5h1.7l-3.7,8.2C78.2,223.7,76.6,223.7,76.6,223.7z"/>
</g>
</svg>
